<mxfile host="app.diagrams.net" modified="2022-03-11T20:59:15.755Z" agent="5.0 (Windows NT 10.0; Win64; x64) AppleWebKit/537.36 (KHTML, like Gecko) Chrome/99.0.4844.51 Safari/537.36" etag="1QXwuxHnteF9bAI1qmGR" version="17.1.2" type="github">
  <diagram id="pyGAeGKa17OCo6sZXO-b" name="Page-1">
    <mxGraphModel dx="1185" dy="635" grid="1" gridSize="10" guides="1" tooltips="1" connect="1" arrows="1" fold="1" page="1" pageScale="1" pageWidth="850" pageHeight="1100" math="0" shadow="0">
      <root>
        <mxCell id="0" />
        <mxCell id="1" parent="0" />
        <mxCell id="tk_SwDLR3K35nHoFqVDC-43" style="edgeStyle=orthogonalEdgeStyle;rounded=0;orthogonalLoop=1;jettySize=auto;html=1;exitX=1;exitY=0.25;exitDx=0;exitDy=0;entryX=0;entryY=0;entryDx=0;entryDy=15;entryPerimeter=0;" edge="1" parent="1" source="tk_SwDLR3K35nHoFqVDC-28" target="tk_SwDLR3K35nHoFqVDC-39">
          <mxGeometry relative="1" as="geometry" />
        </mxCell>
        <mxCell id="tk_SwDLR3K35nHoFqVDC-46" style="edgeStyle=orthogonalEdgeStyle;rounded=0;orthogonalLoop=1;jettySize=auto;html=1;exitX=0;exitY=0.75;exitDx=0;exitDy=0;entryX=0.926;entryY=0.756;entryDx=0;entryDy=0;entryPerimeter=0;" edge="1" parent="1" source="tk_SwDLR3K35nHoFqVDC-28" target="tk_SwDLR3K35nHoFqVDC-14">
          <mxGeometry relative="1" as="geometry" />
        </mxCell>
        <mxCell id="tk_SwDLR3K35nHoFqVDC-28" value="" style="whiteSpace=wrap;html=1;aspect=fixed;" vertex="1" parent="1">
          <mxGeometry x="530" y="80" width="280" height="280" as="geometry" />
        </mxCell>
        <mxCell id="tk_SwDLR3K35nHoFqVDC-45" style="edgeStyle=orthogonalEdgeStyle;rounded=0;orthogonalLoop=1;jettySize=auto;html=1;exitX=0.88;exitY=0.25;exitDx=0;exitDy=0;exitPerimeter=0;entryX=-0.012;entryY=0.217;entryDx=0;entryDy=0;entryPerimeter=0;" edge="1" parent="1" source="tk_SwDLR3K35nHoFqVDC-14" target="tk_SwDLR3K35nHoFqVDC-28">
          <mxGeometry relative="1" as="geometry" />
        </mxCell>
        <mxCell id="tk_SwDLR3K35nHoFqVDC-47" value="API Gateway" style="edgeLabel;html=1;align=center;verticalAlign=middle;resizable=0;points=[];" vertex="1" connectable="0" parent="tk_SwDLR3K35nHoFqVDC-45">
          <mxGeometry x="0.0443" y="1" relative="1" as="geometry">
            <mxPoint as="offset" />
          </mxGeometry>
        </mxCell>
        <mxCell id="tk_SwDLR3K35nHoFqVDC-14" value="" style="ellipse;shape=cloud;whiteSpace=wrap;html=1;fillColor=#ffe6cc;strokeColor=#d79b00;" vertex="1" parent="1">
          <mxGeometry x="20" y="70" width="440" height="280" as="geometry" />
        </mxCell>
        <mxCell id="tk_SwDLR3K35nHoFqVDC-34" style="edgeStyle=orthogonalEdgeStyle;rounded=0;orthogonalLoop=1;jettySize=auto;html=1;exitX=1;exitY=0.25;exitDx=0;exitDy=0;entryX=0;entryY=0.25;entryDx=0;entryDy=0;" edge="1" parent="1" source="tk_SwDLR3K35nHoFqVDC-3" target="tk_SwDLR3K35nHoFqVDC-5">
          <mxGeometry relative="1" as="geometry" />
        </mxCell>
        <mxCell id="tk_SwDLR3K35nHoFqVDC-52" style="edgeStyle=orthogonalEdgeStyle;rounded=0;orthogonalLoop=1;jettySize=auto;html=1;exitX=0;exitY=0.75;exitDx=0;exitDy=0;entryX=0.5;entryY=1;entryDx=0;entryDy=0;" edge="1" parent="1" source="tk_SwDLR3K35nHoFqVDC-3" target="tk_SwDLR3K35nHoFqVDC-4">
          <mxGeometry relative="1" as="geometry" />
        </mxCell>
        <mxCell id="tk_SwDLR3K35nHoFqVDC-3" value="Controller&lt;br&gt;layer&amp;nbsp;" style="whiteSpace=wrap;html=1;aspect=fixed;" vertex="1" parent="1">
          <mxGeometry x="122.5" y="150" width="60" height="60" as="geometry" />
        </mxCell>
        <mxCell id="tk_SwDLR3K35nHoFqVDC-50" style="edgeStyle=orthogonalEdgeStyle;rounded=0;orthogonalLoop=1;jettySize=auto;html=1;exitX=1;exitY=0;exitDx=0;exitDy=0;entryX=0;entryY=0.25;entryDx=0;entryDy=0;" edge="1" parent="1" source="tk_SwDLR3K35nHoFqVDC-4" target="tk_SwDLR3K35nHoFqVDC-3">
          <mxGeometry relative="1" as="geometry" />
        </mxCell>
        <mxCell id="tk_SwDLR3K35nHoFqVDC-4" value="" style="aspect=fixed;perimeter=ellipsePerimeter;html=1;align=center;shadow=0;dashed=0;fontColor=#4277BB;labelBackgroundColor=#ffffff;fontSize=12;spacingTop=3;image;image=img/lib/ibm/users/browser.svg;" vertex="1" parent="1">
          <mxGeometry x="10" y="60" width="30" height="30" as="geometry" />
        </mxCell>
        <mxCell id="tk_SwDLR3K35nHoFqVDC-31" style="edgeStyle=orthogonalEdgeStyle;rounded=0;orthogonalLoop=1;jettySize=auto;html=1;exitX=0;exitY=0.75;exitDx=0;exitDy=0;entryX=1;entryY=0.75;entryDx=0;entryDy=0;" edge="1" parent="1" source="tk_SwDLR3K35nHoFqVDC-5" target="tk_SwDLR3K35nHoFqVDC-3">
          <mxGeometry relative="1" as="geometry" />
        </mxCell>
        <mxCell id="tk_SwDLR3K35nHoFqVDC-32" style="edgeStyle=orthogonalEdgeStyle;rounded=0;orthogonalLoop=1;jettySize=auto;html=1;exitX=1;exitY=0.25;exitDx=0;exitDy=0;entryX=0;entryY=0.25;entryDx=0;entryDy=0;" edge="1" parent="1" source="tk_SwDLR3K35nHoFqVDC-5" target="tk_SwDLR3K35nHoFqVDC-6">
          <mxGeometry relative="1" as="geometry" />
        </mxCell>
        <mxCell id="tk_SwDLR3K35nHoFqVDC-5" value="Service layer" style="whiteSpace=wrap;html=1;aspect=fixed;" vertex="1" parent="1">
          <mxGeometry x="212.5" y="150" width="60" height="60" as="geometry" />
        </mxCell>
        <mxCell id="tk_SwDLR3K35nHoFqVDC-33" style="edgeStyle=orthogonalEdgeStyle;rounded=0;orthogonalLoop=1;jettySize=auto;html=1;exitX=0;exitY=0.75;exitDx=0;exitDy=0;entryX=1;entryY=0.75;entryDx=0;entryDy=0;" edge="1" parent="1" source="tk_SwDLR3K35nHoFqVDC-6" target="tk_SwDLR3K35nHoFqVDC-5">
          <mxGeometry relative="1" as="geometry" />
        </mxCell>
        <mxCell id="tk_SwDLR3K35nHoFqVDC-6" value="DAO &lt;br&gt;repository&lt;br&gt;&amp;nbsp;layer" style="whiteSpace=wrap;html=1;aspect=fixed;" vertex="1" parent="1">
          <mxGeometry x="302.5" y="150" width="60" height="60" as="geometry" />
        </mxCell>
        <mxCell id="tk_SwDLR3K35nHoFqVDC-7" value="MODEL" style="ellipse;whiteSpace=wrap;html=1;" vertex="1" parent="1">
          <mxGeometry x="212.5" y="260" width="50" height="30" as="geometry" />
        </mxCell>
        <mxCell id="tk_SwDLR3K35nHoFqVDC-9" value="" style="endArrow=none;dashed=1;html=1;rounded=0;exitX=1;exitY=0;exitDx=0;exitDy=0;entryX=0.5;entryY=1;entryDx=0;entryDy=0;" edge="1" parent="1" source="tk_SwDLR3K35nHoFqVDC-7" target="tk_SwDLR3K35nHoFqVDC-6">
          <mxGeometry width="50" height="50" relative="1" as="geometry">
            <mxPoint x="282.5" y="270" as="sourcePoint" />
            <mxPoint x="332.5" y="220" as="targetPoint" />
          </mxGeometry>
        </mxCell>
        <mxCell id="tk_SwDLR3K35nHoFqVDC-10" value="" style="endArrow=none;dashed=1;html=1;rounded=0;entryX=0.5;entryY=1;entryDx=0;entryDy=0;" edge="1" parent="1" source="tk_SwDLR3K35nHoFqVDC-7" target="tk_SwDLR3K35nHoFqVDC-5">
          <mxGeometry width="50" height="50" relative="1" as="geometry">
            <mxPoint x="265.1776695296637" y="274.39339828220193" as="sourcePoint" />
            <mxPoint x="345" y="220" as="targetPoint" />
          </mxGeometry>
        </mxCell>
        <mxCell id="tk_SwDLR3K35nHoFqVDC-11" value="" style="endArrow=none;dashed=1;html=1;rounded=0;entryX=0.5;entryY=1;entryDx=0;entryDy=0;exitX=0;exitY=0.5;exitDx=0;exitDy=0;" edge="1" parent="1" source="tk_SwDLR3K35nHoFqVDC-7" target="tk_SwDLR3K35nHoFqVDC-3">
          <mxGeometry width="50" height="50" relative="1" as="geometry">
            <mxPoint x="248.65261916521013" y="270.01595085226654" as="sourcePoint" />
            <mxPoint x="252.5" y="220" as="targetPoint" />
          </mxGeometry>
        </mxCell>
        <mxCell id="tk_SwDLR3K35nHoFqVDC-12" value="Front end application&amp;nbsp;" style="text;html=1;strokeColor=none;fillColor=none;align=center;verticalAlign=middle;whiteSpace=wrap;rounded=0;" vertex="1" parent="1">
          <mxGeometry x="212.5" y="40" width="60" height="30" as="geometry" />
        </mxCell>
        <mxCell id="tk_SwDLR3K35nHoFqVDC-18" value="GCP Cloud&amp;nbsp;" style="text;html=1;strokeColor=none;fillColor=none;align=center;verticalAlign=middle;whiteSpace=wrap;rounded=0;" vertex="1" parent="1">
          <mxGeometry x="205" y="360" width="95" height="30" as="geometry" />
        </mxCell>
        <mxCell id="tk_SwDLR3K35nHoFqVDC-19" value="" style="endArrow=none;dashed=1;html=1;rounded=0;" edge="1" parent="1">
          <mxGeometry width="50" height="50" relative="1" as="geometry">
            <mxPoint x="480" y="510" as="sourcePoint" />
            <mxPoint x="480" y="10" as="targetPoint" />
          </mxGeometry>
        </mxCell>
        <mxCell id="tk_SwDLR3K35nHoFqVDC-48" value="API Gateway" style="edgeLabel;html=1;align=center;verticalAlign=middle;resizable=0;points=[];" vertex="1" connectable="0" parent="tk_SwDLR3K35nHoFqVDC-19">
          <mxGeometry x="-0.09" y="3" relative="1" as="geometry">
            <mxPoint as="offset" />
          </mxGeometry>
        </mxCell>
        <mxCell id="tk_SwDLR3K35nHoFqVDC-35" style="edgeStyle=orthogonalEdgeStyle;rounded=0;orthogonalLoop=1;jettySize=auto;html=1;exitX=1;exitY=0.25;exitDx=0;exitDy=0;entryX=0;entryY=0.25;entryDx=0;entryDy=0;" edge="1" parent="1" source="tk_SwDLR3K35nHoFqVDC-20" target="tk_SwDLR3K35nHoFqVDC-21">
          <mxGeometry relative="1" as="geometry" />
        </mxCell>
        <mxCell id="tk_SwDLR3K35nHoFqVDC-20" value="Controller&lt;br&gt;layer&amp;nbsp;" style="whiteSpace=wrap;html=1;aspect=fixed;" vertex="1" parent="1">
          <mxGeometry x="550" y="140" width="60" height="60" as="geometry" />
        </mxCell>
        <mxCell id="tk_SwDLR3K35nHoFqVDC-36" style="edgeStyle=orthogonalEdgeStyle;rounded=0;orthogonalLoop=1;jettySize=auto;html=1;exitX=0;exitY=0.75;exitDx=0;exitDy=0;entryX=1;entryY=0.75;entryDx=0;entryDy=0;" edge="1" parent="1" source="tk_SwDLR3K35nHoFqVDC-21" target="tk_SwDLR3K35nHoFqVDC-20">
          <mxGeometry relative="1" as="geometry" />
        </mxCell>
        <mxCell id="tk_SwDLR3K35nHoFqVDC-37" style="edgeStyle=orthogonalEdgeStyle;rounded=0;orthogonalLoop=1;jettySize=auto;html=1;exitX=1;exitY=0.25;exitDx=0;exitDy=0;entryX=0;entryY=0.25;entryDx=0;entryDy=0;" edge="1" parent="1" source="tk_SwDLR3K35nHoFqVDC-21" target="tk_SwDLR3K35nHoFqVDC-22">
          <mxGeometry relative="1" as="geometry" />
        </mxCell>
        <mxCell id="tk_SwDLR3K35nHoFqVDC-21" value="Service layer" style="whiteSpace=wrap;html=1;aspect=fixed;" vertex="1" parent="1">
          <mxGeometry x="640" y="140" width="60" height="60" as="geometry" />
        </mxCell>
        <mxCell id="tk_SwDLR3K35nHoFqVDC-38" style="edgeStyle=orthogonalEdgeStyle;rounded=0;orthogonalLoop=1;jettySize=auto;html=1;exitX=0;exitY=0.75;exitDx=0;exitDy=0;entryX=1;entryY=0.75;entryDx=0;entryDy=0;" edge="1" parent="1" source="tk_SwDLR3K35nHoFqVDC-22" target="tk_SwDLR3K35nHoFqVDC-21">
          <mxGeometry relative="1" as="geometry" />
        </mxCell>
        <mxCell id="tk_SwDLR3K35nHoFqVDC-22" value="DAO &lt;br&gt;repository&lt;br&gt;&amp;nbsp;layer" style="whiteSpace=wrap;html=1;aspect=fixed;" vertex="1" parent="1">
          <mxGeometry x="730" y="140" width="60" height="60" as="geometry" />
        </mxCell>
        <mxCell id="tk_SwDLR3K35nHoFqVDC-23" value="MODEL" style="ellipse;whiteSpace=wrap;html=1;" vertex="1" parent="1">
          <mxGeometry x="640" y="250" width="50" height="30" as="geometry" />
        </mxCell>
        <mxCell id="tk_SwDLR3K35nHoFqVDC-24" value="" style="endArrow=none;dashed=1;html=1;rounded=0;exitX=1;exitY=0;exitDx=0;exitDy=0;entryX=0.5;entryY=1;entryDx=0;entryDy=0;" edge="1" parent="1" source="tk_SwDLR3K35nHoFqVDC-23" target="tk_SwDLR3K35nHoFqVDC-22">
          <mxGeometry width="50" height="50" relative="1" as="geometry">
            <mxPoint x="710" y="260" as="sourcePoint" />
            <mxPoint x="760" y="210" as="targetPoint" />
          </mxGeometry>
        </mxCell>
        <mxCell id="tk_SwDLR3K35nHoFqVDC-25" value="" style="endArrow=none;dashed=1;html=1;rounded=0;entryX=0.5;entryY=1;entryDx=0;entryDy=0;" edge="1" parent="1" source="tk_SwDLR3K35nHoFqVDC-23" target="tk_SwDLR3K35nHoFqVDC-21">
          <mxGeometry width="50" height="50" relative="1" as="geometry">
            <mxPoint x="692.6776695296637" y="264.39339828220193" as="sourcePoint" />
            <mxPoint x="772.5" y="210" as="targetPoint" />
          </mxGeometry>
        </mxCell>
        <mxCell id="tk_SwDLR3K35nHoFqVDC-26" value="" style="endArrow=none;dashed=1;html=1;rounded=0;entryX=0.5;entryY=1;entryDx=0;entryDy=0;exitX=0;exitY=0.5;exitDx=0;exitDy=0;" edge="1" parent="1" source="tk_SwDLR3K35nHoFqVDC-23" target="tk_SwDLR3K35nHoFqVDC-20">
          <mxGeometry width="50" height="50" relative="1" as="geometry">
            <mxPoint x="676.1526191652101" y="260.01595085226654" as="sourcePoint" />
            <mxPoint x="680" y="210" as="targetPoint" />
          </mxGeometry>
        </mxCell>
        <mxCell id="tk_SwDLR3K35nHoFqVDC-29" value="Application on the ground" style="text;html=1;strokeColor=none;fillColor=none;align=center;verticalAlign=middle;whiteSpace=wrap;rounded=0;" vertex="1" parent="1">
          <mxGeometry x="635" y="400" width="95" height="30" as="geometry" />
        </mxCell>
        <mxCell id="tk_SwDLR3K35nHoFqVDC-44" style="edgeStyle=orthogonalEdgeStyle;rounded=0;orthogonalLoop=1;jettySize=auto;html=1;exitX=0;exitY=1;exitDx=0;exitDy=-15;exitPerimeter=0;entryX=1;entryY=0.75;entryDx=0;entryDy=0;" edge="1" parent="1" source="tk_SwDLR3K35nHoFqVDC-39" target="tk_SwDLR3K35nHoFqVDC-28">
          <mxGeometry relative="1" as="geometry" />
        </mxCell>
        <mxCell id="tk_SwDLR3K35nHoFqVDC-39" value="" style="shape=cylinder3;whiteSpace=wrap;html=1;boundedLbl=1;backgroundOutline=1;size=15;" vertex="1" parent="1">
          <mxGeometry x="930" y="160" width="60" height="80" as="geometry" />
        </mxCell>
        <mxCell id="tk_SwDLR3K35nHoFqVDC-53" value="REST&amp;nbsp;" style="text;html=1;strokeColor=none;fillColor=none;align=center;verticalAlign=middle;whiteSpace=wrap;rounded=0;" vertex="1" parent="1">
          <mxGeometry x="440" y="70" width="60" height="30" as="geometry" />
        </mxCell>
      </root>
    </mxGraphModel>
  </diagram>
</mxfile>
